<?xml version="1.0" encoding="utf-8"?>
<!-- Generator: Adobe Illustrator 25.4.1, SVG Export Plug-In . SVG Version: 6.00 Build 0)  -->
<svg version="1.1" xmlns="http://www.w3.org/2000/svg" xmlns:xlink="http://www.w3.org/1999/xlink" x="0px" y="0px"
	 viewBox="0 0 841.9 595.3" style="enable-background:new 0 0 841.9 595.3;" xml:space="preserve">
<style type="text/css">
	.st0{display:none;}
	.st1{display:inline;}
	.st2{fill:#FFFFFF;}
</style>
<g id="Layer_2" class="st0">
	<rect class="st1" width="841.9" height="595.3"/>
</g>
<g id="Layer_1">
	<g>
		<path class="st2" d="M218.8,389c60.2-16.7,119.1-35.9,176.2-60.7c-3.1-0.1-6.1-0.3-9.2-0.4c-27.9-1.4-55.7-3.4-83-9.3
			c-8.6-1.9-17.2-4.1-25-8.4c-1.8-1-3.5-2.2-5-3.5c-4.2-3.6-5.1-8.4-1.7-12.7c3.5-4.6,7.5-8.9,11.8-12.7
			c9.8-8.6,21.1-14.9,32.6-20.8c20.2-10.4,41.3-18.9,62.7-26.3c0.5-0.2,1-0.3,1.7-0.5c6.8,11.6,13.6,23.1,20.6,34.9
			c-16,6.3-32.2,11.9-47.5,20.7c23.4,2.2,46.2,4.4,69.4,6.6c-1.8-4.4-3.3-8.8-5.4-13c-13.7-27.3-27.4-54.6-41.2-81.9
			c-0.4-0.8-0.7-1.6-1.3-2.7c15.4-7,30.7-14,46.3-21.1c12.8,29.4,25.5,58.5,38.4,88.3c9.1-28.2,17.9-55.9,26.8-83.6
			c6.1,0.2,54.5,19.3,64,25.3c-19.1,30.5-38.1,61-57.3,91.8c43.5-0.4,86.6-1.7,130.3-0.2c-5.2,20.6-10.3,40.8-15.3,61
			c-16.5-4.5-32.6-9.1-48.9-13.3c-16.3-4.2-32.5-8.5-49.8-10.4c12.5,19,24.8,37.6,37.2,56.5c-20,9.3-39.9,18.5-59.9,27.7
			c-9.1-19.1-18.1-38.1-27.2-57.3c1.3-0.4,2.4-0.8,3.6-1.2c10.8-3.7,20.3-9.4,27.5-18.4c4.2-5.2,7-11,7.6-17.8
			c0.6-6.4-1.2-12.1-5.3-17c-3.7-4.5-12.5-10-18.9-11.7c9.5,6,11.5,14,12.6,23.8c0.4,4.3-1.1,9.3-3,13c-4.2,8.5-11.5,13.2-19.6,17.3
			c-19.3,9.7-39.3,17.9-59.6,25.3c-37.8,13.8-75.8,27.1-113.7,40.6c-7.4,2.6-14.9,5-22.4,7.5c-0.8,0.3-2.1,0.2-2.7-0.3
			c-15.2-11.5-30.3-23.2-45.4-34.8C219.4,389.2,219.1,389.2,218.8,389z"/>
		<path class="st2" d="M530.7,186.8c21.7-5.4,43.4-10.8,65.5-16.2c0,2.7,0,4.9,0,7.1c-0.4,15-0.8,30-1.2,44.9c0,1.4-0.1,2.4-1.9,2.8
			c-16.6,3.6-33.1,7.3-49.7,10.9c-0.3,0.1-0.7,0.1-1.3,0.1c6.8-11.3,13.5-22.4,20.3-33.7c-10.7-5.2-21.2-10.2-31.7-15.3
			C530.6,187.3,530.7,187.1,530.7,186.8z"/>
		<path class="st2" d="M471.1,204.2c-4.3,13.6-8.4,26.6-12.5,39.7c-0.2,0-0.3,0.1-0.5,0.1c-4.1-10.6-8.3-21.1-12.5-32
			C454.1,209.5,462.3,206.9,471.1,204.2z"/>
	</g>
</g>
</svg>
